<svg width="16" height="16" viewBox="0 0 16 16" fill="none" xmlns="http://www.w3.org/2000/svg">
<path d="M11.2549 4.34452C11.3544 4.23594 11.4753 4.14925 11.6101 4.08994C11.7449 4.03063 11.8905 4 12.0378 4C12.185 4 12.3307 4.03063 12.4654 4.08994C12.6002 4.14925 12.7212 4.23594 12.8206 4.34452C13.0291 4.57143 13.1448 4.86836 13.1448 5.17652C13.1448 5.48467 13.0291 5.7816 12.8206 6.00852L7.51777 11.6542C7.4183 11.7628 7.29734 11.8495 7.16257 11.9088C7.02779 11.9681 6.88216 11.9987 6.73491 11.9987C6.58766 11.9987 6.44203 11.9681 6.30726 11.9088C6.17248 11.8495 6.05152 11.7628 5.95205 11.6542L3.18405 8.71252C2.97556 8.4856 2.85986 8.18867 2.85986 7.88052C2.85986 7.57236 2.97556 7.27543 3.18405 7.04852C3.28352 6.93994 3.40448 6.85325 3.53926 6.79394C3.67403 6.73463 3.81966 6.704 3.96691 6.704C4.11416 6.704 4.25979 6.73463 4.39457 6.79394C4.52934 6.85325 4.6503 6.93994 4.74977 7.04852L6.73377 9.15823L11.2538 4.34452H11.2549Z" fill="#4F566B"/>
</svg>
