<svg width="16" height="16" viewBox="0 0 16 16" fill="none" xmlns="http://www.w3.org/2000/svg">
<path fill-rule="evenodd" clip-rule="evenodd" d="M0 11.173V3.307C0.000794461 2.96009 0.139163 2.62765 0.384749 2.38263C0.630336 2.1376 0.963086 2 1.31 2H14.69C15.414 2 16 2.579 16 3.307V12.693C15.9992 13.0399 15.8608 13.3723 15.6153 13.6174C15.3697 13.8624 15.0369 14 14.69 14H1.31C0.585 14 0 13.421 0 12.693V11.173ZM2.348 7.167C2.2768 7.19927 2.21268 7.24527 2.1593 7.30238C2.10592 7.35948 2.06433 7.42656 2.03692 7.49976C2.00952 7.57297 1.99683 7.65086 1.99959 7.72898C2.00235 7.8071 2.0205 7.88391 2.053 7.955C2.183 8.249 2.539 8.395 2.836 8.263L5.412 7.116C5.712 6.983 6.242 6.586 6.369 6.056C6.242 5.526 5.712 5.129 5.412 4.996L2.836 3.849C2.69266 3.79546 2.5343 3.79861 2.39321 3.8578C2.25211 3.91699 2.1389 4.02777 2.07667 4.16754C2.01443 4.30732 2.00785 4.46558 2.05827 4.61004C2.10868 4.75451 2.2123 4.8743 2.348 4.945L5.19 6.056L2.35 7.166L2.348 7.167Z" fill="#4F566B"/>
</svg>
