<svg width="16" height="16" viewBox="0 0 16 16" fill="none" xmlns="http://www.w3.org/2000/svg">
<path fill-rule="evenodd" clip-rule="evenodd" d="M14.0021 9.55748C14.0021 9.78006 13.9137 9.99353 13.7563 10.1509C13.5989 10.3083 13.3854 10.3967 13.1628 10.3967C12.9403 10.3967 12.7268 10.3083 12.5694 10.1509C12.412 9.99353 12.3236 9.78006 12.3236 9.55748V4.85766L3.42163 13.7563C3.34426 13.8336 3.25242 13.8949 3.15136 13.9367C3.05029 13.9785 2.94198 14 2.8326 14C2.72322 14 2.61492 13.9784 2.51389 13.9365C2.41285 13.8946 2.32105 13.8332 2.24374 13.7558C2.16643 13.6785 2.10511 13.5866 2.06329 13.4856C2.02147 13.3845 1.99996 13.2762 2 13.1668C2.00004 13.0574 2.02162 12.9491 2.06351 12.8481C2.10541 12.7471 2.16679 12.6553 2.24416 12.5779L11.1444 3.67935H6.44462C6.22193 3.67935 6.00835 3.59088 5.85088 3.43341C5.69341 3.27594 5.60495 3.06237 5.60495 2.83967C5.60495 2.61698 5.69341 2.4034 5.85088 2.24593C6.00835 2.08847 6.22193 2 6.44462 2H13.1754C13.2563 2.00104 13.3366 2.01376 13.4138 2.03777C13.5846 2.0899 13.7341 2.19569 13.84 2.33945C13.946 2.48322 14.0028 2.6573 14.0021 2.8359V9.55748Z" fill="#4F566B"/>
</svg>
