<svg width="16" height="16" viewBox="0 0 16 16" fill="none" xmlns="http://www.w3.org/2000/svg">
<path fill-rule="evenodd" clip-rule="evenodd" d="M12.4982 2C12.9146 2 13.2529 2.33609 13.2529 2.75021C13.2528 2.9172 13.1968 3.07935 13.0939 3.21083L8.75617 8.75487L8.75167 12.2943C8.75175 12.393 8.73238 12.4907 8.69466 12.5818C8.65694 12.6729 8.60162 12.7558 8.53186 12.8255L7.37954 13.9778C7.3691 13.9883 7.35576 13.9955 7.34122 13.9985C7.32668 14.0015 7.31159 14 7.29786 13.9944C7.28413 13.9888 7.27237 13.9792 7.26408 13.9669C7.25578 13.9546 7.25132 13.9401 7.25126 13.9253V8.75487L2.90906 3.21083C2.84818 3.13314 2.80329 3.04414 2.777 2.949C2.7507 2.85385 2.74352 2.75444 2.75587 2.65651C2.76821 2.55857 2.79984 2.46405 2.84893 2.37841C2.89801 2.29277 2.96358 2.2177 3.04185 2.15754C3.17449 2.05532 3.33726 1.99992 3.50472 2H12.4982Z" fill="#4F566B"/>
</svg>
