<svg width="16" height="16" viewBox="0 0 16 16" fill="none" xmlns="http://www.w3.org/2000/svg">
<path fill-rule="evenodd" clip-rule="evenodd" d="M9 8C9 7.73478 8.89464 7.48043 8.70711 7.29289C8.51957 7.10536 8.26522 7 8 7H5.5C5.23478 7 4.98043 7.10536 4.79289 7.29289C4.60536 7.48043 4.5 7.73478 4.5 8C4.5 8.26522 4.60536 8.51957 4.79289 8.70711C4.98043 8.89464 5.23478 9 5.5 9H7V13C7 13.2652 7.10536 13.5196 7.29289 13.7071C7.48043 13.8946 7.73478 14 8 14C8.26522 14 8.51957 13.8946 8.70711 13.7071C8.89464 13.5196 9 13.2652 9 13V8ZM4 0H12C13.0609 0 14.0783 0.421427 14.8284 1.17157C15.5786 1.92172 16 2.93913 16 4V12C16 13.0609 15.5786 14.0783 14.8284 14.8284C14.0783 15.5786 13.0609 16 12 16H4C2.93913 16 1.92172 15.5786 1.17157 14.8284C0.421427 14.0783 0 13.0609 0 12V4C0 2.93913 0.421427 1.92172 1.17157 1.17157C1.92172 0.421427 2.93913 0 4 0V0ZM8 5.5C8.39782 5.5 8.77936 5.34196 9.06066 5.06066C9.34196 4.77936 9.5 4.39782 9.5 4C9.5 3.60218 9.34196 3.22064 9.06066 2.93934C8.77936 2.65804 8.39782 2.5 8 2.5C7.60218 2.5 7.22064 2.65804 6.93934 2.93934C6.65804 3.22064 6.5 3.60218 6.5 4C6.5 4.39782 6.65804 4.77936 6.93934 5.06066C7.22064 5.34196 7.60218 5.5 8 5.5Z" fill="#4F566B"/>
</svg>
