<svg width="16" height="16" viewBox="0 0 16 16" fill="none" xmlns="http://www.w3.org/2000/svg">
<path d="M9.5 14.799V11.394C9.49948 11.315 9.48334 11.2368 9.45252 11.164C9.42169 11.0912 9.37679 11.0252 9.32038 10.9698C9.26397 10.9144 9.19718 10.8708 9.12384 10.8413C9.05049 10.8118 8.97204 10.7971 8.893 10.798H7.107C6.94767 10.7972 6.79447 10.8594 6.68078 10.971C6.56709 11.0826 6.50211 11.2347 6.5 11.394V14.799H2.5C2.36877 14.7993 2.23878 14.7736 2.11747 14.7236C1.99615 14.6736 1.8859 14.6001 1.79301 14.5074C1.70013 14.4147 1.62644 14.3046 1.57616 14.1834C1.52588 14.0622 1.5 13.9322 1.5 13.801V6.796C1.5 6.415 1.718 6.067 2.06 5.9L8.02 1L13.916 5.889C14.0901 5.96823 14.2377 6.09587 14.3413 6.25669C14.4448 6.41751 14.4999 6.60473 14.5 6.796V13.801C14.5 13.9321 14.4742 14.062 14.4239 14.1831C14.3737 14.3043 14.3001 14.4144 14.2073 14.507C14.1146 14.5997 14.0044 14.6732 13.8832 14.7233C13.762 14.7734 13.6321 14.7991 13.501 14.799H9.5ZM8 8.599C8.17072 8.599 8.33976 8.56537 8.49749 8.50004C8.65521 8.43471 8.79852 8.33895 8.91924 8.21824C9.03996 8.09752 9.13571 7.95421 9.20104 7.79649C9.26637 7.63877 9.3 7.46972 9.3 7.299C9.3 7.12828 9.26637 6.95923 9.20104 6.80151C9.13571 6.64379 9.03996 6.50048 8.91924 6.37976C8.79852 6.25905 8.65521 6.16329 8.49749 6.09796C8.33976 6.03263 8.17072 5.999 8 5.999C7.65522 5.999 7.32456 6.13596 7.08076 6.37976C6.83696 6.62356 6.7 6.95422 6.7 7.299C6.7 7.64378 6.83696 7.97444 7.08076 8.21824C7.32456 8.46204 7.65522 8.599 8 8.599Z" fill="#A3ACB9"/>
<path d="M8.05242 1.00373C7.99816 0.996296 7.94295 0.999997 7.89017 1.01461C7.83738 1.02923 7.78813 1.05445 7.74542 1.08873L0.602424 6.87273C0.560458 6.90579 0.52554 6.94692 0.49973 6.9937C0.47392 7.04047 0.457742 7.09194 0.452149 7.14507C0.446556 7.1982 0.451663 7.25191 0.467168 7.30304C0.482673 7.35416 0.508261 7.40166 0.542424 7.44273L1.29242 8.36773C1.43042 8.53773 1.68742 8.56773 1.86042 8.42773L8.05242 3.41273L14.2454 8.42773C14.4184 8.56773 14.6754 8.53773 14.8154 8.36773L15.5634 7.44173C15.5976 7.40066 15.6232 7.35316 15.6387 7.30204C15.6542 7.25091 15.6593 7.1972 15.6537 7.14407C15.6481 7.09094 15.6319 7.03947 15.6061 6.9927C15.5803 6.94592 15.5454 6.90479 15.5034 6.87173L8.36042 1.08973C8.31759 1.05532 8.26817 1.03002 8.21521 1.0154C8.16224 1.00079 8.10684 0.997155 8.05242 1.00473V1.00373Z" fill="#4F566B"/>
</svg>
