<svg width="16" height="16" viewBox="0 0 16 16" fill="none" xmlns="http://www.w3.org/2000/svg">
<path fill-rule="evenodd" clip-rule="evenodd" d="M3 7V5C3 3.67392 3.52678 2.40215 4.46447 1.46447C5.40215 0.526784 6.67392 0 8 0C9.32608 0 10.5979 0.526784 11.5355 1.46447C12.4732 2.40215 13 3.67392 13 5V7H13.5C13.7652 7 14.0196 7.10536 14.2071 7.29289C14.3946 7.48043 14.5 7.73478 14.5 8V14C14.5 14.5304 14.2893 15.0391 13.9142 15.4142C13.5391 15.7893 13.0304 16 12.5 16H3.5C2.96957 16 2.46086 15.7893 2.08579 15.4142C1.71071 15.0391 1.5 14.5304 1.5 14V8C1.5 7.73478 1.60536 7.48043 1.79289 7.29289C1.98043 7.10536 2.23478 7 2.5 7H3ZM8 9.5C7.73478 9.5 7.48043 9.60536 7.29289 9.79289C7.10536 9.98043 7 10.2348 7 10.5V12.5C7 12.7652 7.10536 13.0196 7.29289 13.2071C7.48043 13.3946 7.73478 13.5 8 13.5C8.26522 13.5 8.51957 13.3946 8.70711 13.2071C8.89464 13.0196 9 12.7652 9 12.5V10.5C9 10.2348 8.89464 9.98043 8.70711 9.79289C8.51957 9.60536 8.26522 9.5 8 9.5ZM11 7V5C11 4.20435 10.6839 3.44129 10.1213 2.87868C9.55871 2.31607 8.79565 2 8 2C7.20435 2 6.44129 2.31607 5.87868 2.87868C5.31607 3.44129 5 4.20435 5 5V7H11Z" fill="#A3ACB9"/>
</svg>
