<svg width="16" height="16" viewBox="0 0 16 16" fill="none" xmlns="http://www.w3.org/2000/svg">
<path d="M11.1 10.002C11.1001 9.72622 11.0459 9.45312 10.9405 9.19829C10.8351 8.94345 10.6805 8.71188 10.4856 8.51678C10.2907 8.32169 10.0593 8.16689 9.80456 8.06124C9.54983 7.95558 9.27678 7.90113 9.001 7.901C8.72522 7.90087 8.45212 7.95506 8.19729 8.06047C7.94245 8.16588 7.71088 8.32046 7.51578 8.51537C7.32069 8.71028 7.16589 8.94171 7.06024 9.19644C6.95458 9.45117 6.90013 9.72422 6.9 10H1C0.448 10 0 9.587 0 9.077V2.923C0 2.413 0.448 2 1 2H13.002C13.555 2 14.002 2.413 14.002 2.923V10.003L11.1 10.002ZM7.006 4C6.47477 3.9992 5.96498 4.20947 5.58879 4.58454C5.21259 4.95962 5.0008 5.46877 5 6C4.9992 6.53123 5.20947 7.04102 5.58454 7.41721C5.95962 7.79341 6.46877 8.0052 7 8.006C7.26304 8.00639 7.52358 7.95497 7.76674 7.85468C8.00991 7.75438 8.23094 7.60717 8.41721 7.42146C8.60349 7.23574 8.75136 7.01515 8.85238 6.77229C8.95341 6.52942 9.00561 6.26904 9.006 6.006C9.00639 5.74296 8.95498 5.48242 8.85468 5.23926C8.75438 4.99609 8.60717 4.77506 8.42146 4.58879C8.23574 4.40251 8.01515 4.25464 7.77229 4.15362C7.52942 4.05259 7.26904 4.00039 7.006 4Z" fill="#A3ACB9"/>
<path d="M15 14H3C2.448 14 2 13.587 2 13.077V6.923C2 6.413 2.448 6 3 6H15C15.552 6 16 6.413 16 6.923V13.077C16 13.587 15.552 14 15 14ZM9.006 8C8.74296 7.99961 8.48242 8.05103 8.23926 8.15132C7.99609 8.25162 7.77506 8.39883 7.58879 8.58454C7.40251 8.77026 7.25464 8.99085 7.15362 9.23371C7.05259 9.47658 7.00039 9.73696 7 10C6.99961 10.263 7.05103 10.5236 7.15132 10.7667C7.25162 11.0099 7.39883 11.2309 7.58454 11.4172C7.77026 11.6035 7.99085 11.7514 8.23371 11.8524C8.47658 11.9534 8.73696 12.0056 9 12.006C9.53123 12.0068 10.041 11.7965 10.4172 11.4215C10.7934 11.0464 11.0052 10.5372 11.006 10.006C11.0068 9.47477 10.7965 8.96498 10.4215 8.58879C10.0464 8.21259 9.53723 8.0008 9.006 8Z" fill="#4F566B"/>
</svg>
