<svg width="16" height="16" viewBox="0 0 16 16" fill="none" xmlns="http://www.w3.org/2000/svg">
<path d="M13.5869 3.37862H13.9169L14.2589 3.53862C14.5959 3.69862 14.9999 4.17862 14.9999 4.62862V11.6946C14.9999 12.0606 14.5959 12.3946 14.2589 12.5556L8.53291 15.3256C8.40991 15.3836 8.27491 15.4126 7.99991 15.4126V9.39562H2.65991V4.06262L9.70391 1.46962L9.82091 1.35962L12.2999 2.56062L11.9639 3.39562L13.5879 3.37862H13.5869Z" fill="#4F566B"/>
<path d="M8.00002 7.12865V15.3757C8.00002 15.3757 7.45402 15.3976 7.28502 15.3246L1.53302 12.5707C1.3721 12.4919 1.2367 12.3693 1.1424 12.217C1.0481 12.0647 0.998748 11.8888 1.00002 11.7097V4.41465C0.998818 4.23565 1.04821 4.05995 1.14251 3.90779C1.23681 3.75564 1.37218 3.63322 1.53302 3.55465L7.63702 0.67265C7.75664 0.614975 7.88773 0.585022 8.02052 0.585022C8.15332 0.585022 8.28441 0.614975 8.40402 0.67265L10.157 1.51065L3.24402 4.81765C3.16632 4.85677 3.10108 4.91682 3.05567 4.99103C3.01026 5.06524 2.98649 5.15065 2.98702 5.23765L2.99402 7.26765L5.00202 8.29965V6.20565C5.00149 6.11903 5.02505 6.03397 5.07009 5.95998C5.11512 5.88598 5.17984 5.82597 5.25702 5.78665L12.163 2.47365L14.154 3.42665C14.342 3.51965 14.504 3.69465 14.66 3.85365L8.00002 7.12865Z" fill="#A3ACB9"/>
</svg>
