<svg width="16" height="16" viewBox="0 0 16 16" fill="none" xmlns="http://www.w3.org/2000/svg">
<g clip-path="url(#clip0_17_36)">
<path fill-rule="evenodd" clip-rule="evenodd" d="M12.6 11.2C12.637 11.228 12.673 11.259 12.707 11.293L15.707 14.293C15.8025 14.3853 15.8787 14.4956 15.9311 14.6176C15.9835 14.7396 16.0111 14.8708 16.0123 15.0036C16.0134 15.1364 15.9881 15.2681 15.9378 15.391C15.8875 15.5139 15.8133 15.6255 15.7194 15.7194C15.6255 15.8133 15.5139 15.8875 15.391 15.9378C15.2681 15.9881 15.1364 16.0134 15.0036 16.0123C14.8708 16.0111 14.7396 15.9835 14.6176 15.9311C14.4956 15.8787 14.3853 15.8025 14.293 15.707L11.293 12.707C11.2595 12.6736 11.2285 12.6378 11.2 12.6C9.78351 13.6624 8.01705 14.1485 6.25645 13.9604C4.49585 13.7723 2.87194 12.924 1.71183 11.5864C0.551715 10.2488 -0.0583901 8.52124 0.004408 6.75174C0.0672061 4.98223 0.798242 3.30227 2.05026 2.05026C3.30227 0.798242 4.98223 0.0672061 6.75174 0.004408C8.52124 -0.0583901 10.2488 0.551715 11.5864 1.71183C12.924 2.87194 13.7723 4.49585 13.9604 6.25645C14.1485 8.01705 13.6624 9.78351 12.6 11.2ZM7 12C8.32609 12 9.59786 11.4732 10.5355 10.5355C11.4732 9.59786 12 8.32609 12 7C12 5.67392 11.4732 4.40215 10.5355 3.46447C9.59786 2.52679 8.32609 2 7 2C5.67392 2 4.40215 2.52679 3.46447 3.46447C2.52679 4.40215 2 5.67392 2 7C2 8.32609 2.52679 9.59786 3.46447 10.5355C4.40215 11.4732 5.67392 12 7 12Z" fill="#4F566B"/>
</g>
<defs>
<clipPath id="clip0_17_36">
<rect width="16" height="16" fill="white"/>
</clipPath>
</defs>
</svg>
