<svg width="16" height="16" viewBox="0 0 16 16" fill="none" xmlns="http://www.w3.org/2000/svg">
<path d="M10.9182 9.49396C11.0589 9.35313 11.2498 9.27397 11.4489 9.2739C11.648 9.27383 11.839 9.35286 11.9798 9.49359C12.1206 9.63432 12.1998 9.82523 12.1999 10.0243C12.1999 10.2234 12.1209 10.4144 11.9802 10.5552L8.75518 13.7802C8.61454 13.9208 8.42381 13.9998 8.22493 13.9998C8.02606 13.9998 7.83533 13.9208 7.69468 13.7802L4.46968 10.5552C4.32895 10.4143 4.24997 10.2232 4.25011 10.0241C4.25025 9.82489 4.3295 9.63394 4.47043 9.49321C4.61136 9.35248 4.80242 9.2735 5.00159 9.27364C5.20075 9.27378 5.3917 9.35303 5.53243 9.49396L8.22493 12.1872L10.9182 9.49396ZM10.9182 6.50596L8.22493 3.81271L5.53168 6.50596C5.39095 6.64679 5.20004 6.72595 5.00095 6.72602C4.80185 6.72609 4.61089 6.64707 4.47006 6.50634C4.32923 6.36561 4.25007 6.1747 4.25 5.9756C4.24993 5.77651 4.32895 5.58554 4.46968 5.44471L7.69468 2.21971C7.83533 2.07911 8.02606 2.00012 8.22493 2.00012C8.42381 2.00012 8.61454 2.07911 8.75518 2.21971L11.9802 5.44471C12.0499 5.51444 12.1051 5.59722 12.1428 5.68831C12.1805 5.7794 12.1999 5.87702 12.1999 5.9756C12.1998 6.07418 12.1804 6.17179 12.1426 6.26286C12.1049 6.35392 12.0495 6.43665 11.9798 6.50634C11.9101 6.57602 11.8273 6.63129 11.7362 6.66898C11.6451 6.70667 11.5475 6.72605 11.4489 6.72602C11.3503 6.72598 11.2527 6.70653 11.1617 6.66878C11.0706 6.63102 10.9879 6.57569 10.9182 6.50596Z" fill="#4F566B"/>
</svg>
