<svg width="16" height="16" viewBox="0 0 16 16" fill="none" xmlns="http://www.w3.org/2000/svg">
<path fill-rule="evenodd" clip-rule="evenodd" d="M14.197 7.017C13.967 7.017 12.59 7.017 12.017 6.322C12.017 6.207 11.902 6.207 11.902 6.091C11.787 5.281 12.82 4.24 12.934 4.124C13.164 3.893 13.164 3.545 13.049 3.43C12.934 3.314 12.475 2.851 12.361 2.62C12.246 2.388 11.901 2.504 11.672 2.736C11.442 2.966 10.525 3.893 9.722 3.776C9.607 3.776 9.607 3.661 9.492 3.661C8.803 3.198 8.803 1.81 8.803 1.579C8.803 1.231 8.689 1 8.459 1H7.311C7.082 1 6.967 1.231 6.967 1.579C6.967 1.809 6.967 3.199 6.279 3.777C6.164 3.777 6.164 3.893 6.049 3.893C5.246 3.893 4.328 2.967 4.099 2.736C3.869 2.504 3.525 2.504 3.409 2.62C3.295 2.851 2.836 3.314 2.607 3.43C2.492 3.545 2.492 3.893 2.721 4.124C2.951 4.355 3.869 5.281 3.754 6.091C3.754 6.207 3.639 6.207 3.639 6.322C3.18 7.017 1.803 7.017 1.574 7.017C1.23 7.017 1 7.132 1 7.364V8.405C1 8.636 1.23 8.868 1.574 8.868C1.804 8.868 3.18 8.868 3.754 9.562C3.754 9.678 3.869 9.678 3.869 9.793C3.984 10.603 2.951 11.645 2.836 11.76C2.606 11.992 2.606 12.339 2.721 12.455C2.836 12.57 3.295 13.033 3.41 13.265C3.525 13.38 3.869 13.38 4.098 13.149C4.328 12.917 5.246 11.992 6.049 12.107C6.164 12.107 6.164 12.223 6.279 12.223C6.967 12.802 6.967 14.074 6.967 14.421C6.967 14.653 7.197 15 7.427 15H8.459C8.689 15 8.918 14.769 8.918 14.421C8.918 14.191 8.918 12.801 9.607 12.223C9.721 12.223 9.721 12.107 9.837 12.107C10.639 11.992 11.672 13.033 11.787 13.149C12.017 13.38 12.361 13.38 12.475 13.264L13.279 12.454C13.393 12.339 13.393 11.992 13.164 11.76C12.934 11.529 12.016 10.603 12.131 9.793C12.131 9.678 12.246 9.678 12.246 9.562C12.82 8.868 14.082 8.868 14.426 8.868C14.656 8.868 15 8.636 15 8.405V7.364C14.77 7.132 14.541 7.017 14.197 7.017ZM7.885 10.487C6.508 10.487 5.361 9.331 5.361 7.942C5.361 6.554 6.508 5.397 7.885 5.397C9.262 5.397 10.41 6.554 10.41 7.942C10.41 9.331 9.262 10.488 7.885 10.488V10.487Z" fill="#4F566B"/>
</svg>
